PathFileType	4	(X/Y/Z)	Patient4_TMGait_0pt2_03_right_16.trc.trc
DataRate	CameraRate	NumFrames	NumMarkers	Units	OrigDataRate	OrigDataStartFrame	OrigNumFrames
48.780487804878	48.780487804878	4	33	mm	48.780487804878	124	       141
Frame#	Time	Sacral			L.Shoulder			Chest			R.Shoulder			Neck			R.ASIS			L.ASIS			R.Thigh.Superior			R.Thigh.Lateral			R.Thigh.Inferior			R.Patella			L.Thigh.Superior			L.Thigh.Lateral			L.Thigh.Inferior			L.Patella			L.Shank.Superior			L.Shank.Lateral			L.Shank.Inferior			R.Shank.Superior			R.Shank.Lateral			R.Shank.Inferior			R.Heel			R.Midfoot.Superior			R.Midfoot.Lateral			R.Toe			L.Heel			L.Midfoot.Lateral			L.Midfoot.Superior			L.Toe			L.Elbow			L.Wrist			R.Elbow			R.Wrist			
		X1	Y1	Z1	X2	Y2	Z2	X3	Y3	Z3	X4	Y4	Z4	X5	Y5	Z5	X6	Y6	Z6	X7	Y7	Z7	X8	Y8	Z8	X9	Y9	Z9	X10	Y10	Z10	X11	Y11	Z11	X12	Y12	Z12	X13	Y13	Z13	X14	Y14	Z14	X15	Y15	Z15	X16	Y16	Z16	X17	Y17	Z17	X18	Y18	Z18	X19	Y19	Z19	X20	Y20	Z20	X21	Y21	Z21	X22	Y22	Z22	X23	Y23	Z23	X24	Y24	Z24	X25	Y25	Z25	X26	Y26	Z26	X27	Y27	Z27	X28	Y28	Z28	X29	Y29	Z29	X30	Y30	Z30	X31	Y31	Z31	X32	Y32	Z32	X33	Y33	Z33	

124	36.931500000000	788.419820018951	1018.333100608348	410.754266458461	1032.034427612915	1438.000660406573	284.756319352849	1075.257943542773	1369.496830141049	466.376421861367	948.872295439354	1450.500062247187	608.606112568417	956.587062815394	1500.338635550119	428.446065459011	980.823444813307	948.046869027413	580.359965879220	1030.811114298057	963.867880396282	312.589202923757	1043.025154511691	754.249040941622	559.748774132053	970.370123467326	641.887415581006	622.695118667187	1057.382637161786	592.594461083618	549.880073420552	1071.976504910980	507.540425203177	564.476753894117	1038.831280275254	736.091218417266	340.623871942572	935.825944694524	621.207120732331	261.449366864066	1008.317314612318	545.344660676277	337.041299424211	997.205816364518	478.123795945249	344.793976081056	966.167995124864	409.038417013384	334.309480606527	870.520697963019	301.378145792195	281.072356103609	906.965065285488	187.586336755886	354.868234243383	1046.686031090327	418.257781044692	577.599310821772	979.857401878266	316.694375864012	649.659648235678	1030.617407418597	218.363748199485	597.445548009302	906.340861182706	46.034459441640	583.651355714017	1079.599372478586	102.577769846846	613.086228330261	993.933188408060	37.661833232058	653.152059429048	1200.115109040132	53.214949684048	632.925608541956	768.642490778161	38.384301408176	399.564070312045	839.127748498562	35.412624049776	315.309651574347	924.657232176954	95.431231503991	339.815435177045	1051.241678127491	41.428990311758	304.168535101565	1190.151110539257	1148.447272630220	144.236465415916	1429.655958238790	1215.835433165628	205.311770663196	754.102297085599	1160.261673895923	670.798473937299	690.610684161117	904.723436594287	661.855464915782	
125	36.952000000000	789.440830194567	1017.464922662468	415.240179675571	1032.335929355231	1436.687193662069	288.602620158033	1076.188624640221	1368.579290089596	470.240847494474	950.398406053140	1449.985163928096	612.716598595515	957.392883117175	1499.452661794815	432.243092372716	982.037529126751	946.418071600614	584.231538449045	1031.577195351386	963.232299477958	316.421903159112	1043.036518753765	751.422150492186	562.529816655896	968.942176400431	639.279298334617	624.208623064562	1055.866443436244	590.184950580873	551.183594737397	1068.683690780171	505.645617756199	564.475008677910	1038.886390930579	735.146905939471	343.203117074362	934.810052182124	621.249132012792	263.927141561804	1006.882765574686	544.539029369844	338.939049436135	995.302704971012	477.443217896178	346.458391696052	963.840472351780	408.638806446024	335.773603066856	867.431639291471	301.801528922585	282.140662044584	903.432484968936	187.404811519257	355.232641030864	1044.719412697107	416.048364083185	577.606194013879	979.083452870962	313.784820901446	649.604987366766	1029.612208672895	216.072657295878	596.269784831770	905.813621985474	44.289878324988	582.280998238115	1078.613213064890	100.768401577872	611.324751054786	993.126076278775	36.668392195832	652.084695600026	1199.233797275921	51.555254219603	631.955302372458	764.529130740360	38.399625026244	399.578212002193	835.040704908355	35.404385215435	315.328850400528	920.578064043761	95.429720052239	339.814693241792	1047.147248739738	41.373569034004	304.139479425968	1191.910290786863	1147.723888589270	149.132375427554	1429.794717220757	1220.426321660092	209.162868481390	756.904899662050	1158.901568992666	676.256721965493	694.397041997656	903.001474258790	667.602307388130	
126	36.972500000000	790.599903427562	1016.787613614905	420.112169583829	1032.602212397379	1435.621575323051	292.683791719632	1077.270534726102	1367.847243390987	474.295236191656	952.149688610860	1449.566868505649	617.128165470758	958.249522128292	1498.725619113285	436.363723518774	983.629253259334	945.030662531201	588.245377048856	1032.363025812464	962.783164865262	320.359429706848	1043.701705866921	749.053065508626	565.088891383852	968.571423512055	637.053068546862	625.763375979822	1055.255262062940	588.161422252996	552.359926947821	1066.380213353436	503.830767763070	564.552945860484	1038.892873638491	734.258100872898	345.852262801469	933.577453384706	621.405867649183	266.594599406890	1005.281331607280	543.807724566058	340.943782174219	993.252582296707	476.856105290665	348.233961883428	961.370637714685	408.360439545696	337.332268009989	864.190124578153	302.347519549864	283.303666811429	899.841676466575	187.300977616677	355.605004404301	1043.104141812189	414.002810934214	577.647915493051	978.016519909264	311.525228563957	649.536186234850	1027.590967528587	214.134226404693	595.119148684489	903.254108771754	43.423674822229	580.909397089312	1075.721865905589	99.411228465733	609.746215400486	990.203393128851	36.348326084543	651.127324256387	1196.333634216169	50.023062061824	631.353375212334	760.422420392741	38.433752919250	399.582835513649	830.965509053839	35.404781802570	315.357336588477	916.515804561756	95.442028760688	339.793075690211	1043.059605085919	41.313680292670	304.103024052058	1192.943302847690	1146.875054270858	153.955763170452	1429.595299377956	1223.533006232351	212.974789679370	759.885871812162	1157.773460683196	682.498677696897	698.454409139213	901.508185857609	674.543229989943	
127	36.993000000000	791.850849718747	1016.340252050405	425.331098508085	1032.884082409634	1434.822417042881	296.948083855213	1078.504507735690	1367.307954704459	478.486021048680	954.125726755894	1449.275097642272	621.770411726180	959.186774111084	1498.185523655208	440.742920396009	985.529178240528	943.948151984463	592.391544811557	1033.115927564755	962.501831596955	324.388531477048	1044.856970109317	747.172594385246	567.517175878799	969.103973690389	635.273411925117	627.525140691791	1055.327772363790	586.536816972465	553.541049992934	1064.936196776960	502.179262120336	564.865668256815	1038.749197891786	733.437870101861	348.608125470241	932.062904653561	621.690956980031	269.437994007947	1003.445787748199	543.171498326472	343.048124867831	990.985135674566	476.383188960051	350.104501540863	958.710080309435	408.224336072020	338.968930779970	860.761964380374	303.022333112517	284.557675663713	896.175200574992	187.289632853185	355.983341923528	1041.814713399755	412.195190351655	577.861780969890	976.797195423071	309.834216901021	649.621203575385	1024.894719505813	212.531081640236	594.162357290701	899.278644848079	43.148654603860	579.737596586418	1071.536293596176	98.453377623997	608.486029192398	985.864998799728	36.440549256330	650.391814516774	1192.107048912703	48.689123967003	631.078707064430	756.320549043834	38.501453201042	399.575004118877	826.898870652082	35.423339877365	315.395180945472	912.470152425130	95.469997212758	339.751872183568	1038.974989807751	41.244951931875	304.061266709159	1193.302246171896	1145.890801673883	158.708681275994	1429.164411178871	1225.239990644930	216.760337272209	763.003951063427	1156.956432417827	689.400357681041	702.680746429493	900.336983599749	682.497186221628	
